<svg xmlns="http://www.w3.org/2000/svg" xmlns:xlink="http://www.w3.org/1999/xlink" version="1.1" width="256" height="256" viewBox="0 0 256 256" xml:space="preserve">

<defs>
</defs>
<g style="stroke: none; stroke-width: 0; stroke-dasharray: none; stroke-linecap: butt; stroke-linejoin: miter; stroke-miterlimit: 10; fill: none; fill-rule: nonzero; opacity: 1;" transform="translate(1.4065934065934016 1.4065934065934016) scale(2.81 2.81)" >
	<path d="M 48.935 55.718 c -3.409 0 -6.817 -1.298 -9.412 -3.893 l 0 0 L 14.356 26.659 c -5.189 -5.189 -5.189 -13.633 0 -18.823 L 18.3 3.892 c 5.189 -5.189 13.634 -5.189 18.823 0 L 62.29 29.058 c 2.505 2.504 3.884 5.847 3.884 9.411 c 0 3.565 -1.379 6.907 -3.884 9.411 l -3.944 3.945 C 55.751 54.42 52.342 55.718 48.935 55.718 z M 41.62 49.728 c 4.034 4.033 10.596 4.033 14.628 0 l 3.944 -3.945 c 1.944 -1.944 3.015 -4.541 3.015 -7.314 c 0 -2.772 -1.071 -5.37 -3.015 -7.314 L 35.026 5.989 c -4.034 -4.032 -10.596 -4.032 -14.628 0 l -3.944 3.944 c -4.033 4.033 -4.033 10.595 0 14.628 L 41.62 49.728 z" style="stroke: none; stroke-width: 1; stroke-dasharray: none; stroke-linecap: butt; stroke-linejoin: miter; stroke-miterlimit: 10; fill: rgb(0,0,0); fill-rule: nonzero; opacity: 1;" transform=" matrix(1 0 0 1 0 0) " stroke-linecap="round" />
	<path d="M 75.644 63.341 L 63.712 51.409 l -2.097 2.098 l 11.931 11.932 c 4.033 4.033 4.033 10.595 0 14.628 l -3.944 3.944 c -4.033 4.033 -10.595 4.033 -14.628 0 L 29.808 58.844 c -3.546 -3.546 -3.971 -9.046 -1.281 -13.064 l -2.119 -2.119 c -3.826 5.205 -3.402 12.576 1.303 17.281 l 25.166 25.166 C 55.472 88.702 58.88 90 62.289 90 c 3.409 0 6.817 -1.298 9.411 -3.893 l 3.944 -3.944 C 80.833 76.974 80.833 68.531 75.644 63.341 z" style="stroke: none; stroke-width: 1; stroke-dasharray: none; stroke-linecap: butt; stroke-linejoin: miter; stroke-miterlimit: 10; fill: rgb(0,0,0); fill-rule: nonzero; opacity: 1;" transform=" matrix(1 0 0 1 0 0) " stroke-linecap="round" />
	<path d="M 50.478 38.175 c -4.614 -4.615 -11.798 -5.115 -16.983 -1.522 l 2.141 2.141 c 1.659 -1.025 3.543 -1.546 5.431 -1.546 c 2.648 0 5.298 1.008 7.314 3.024 l 6.187 6.188 l 2.097 -2.098 L 50.478 38.175 z" style="stroke: none; stroke-width: 1; stroke-dasharray: none; stroke-linecap: butt; stroke-linejoin: miter; stroke-miterlimit: 10; fill: rgb(0,0,0); fill-rule: nonzero; opacity: 1;" transform=" matrix(1 0 0 1 0 0) " stroke-linecap="round" />
</g>
</svg>