<svg xmlns="http://www.w3.org/2000/svg" xmlns:xlink="http://www.w3.org/1999/xlink" version="1.1" width="256" height="256" viewBox="0 0 256 256" xml:space="preserve">

<defs>
</defs>
<g style="stroke: none; stroke-width: 0; stroke-dasharray: none; stroke-linecap: butt; stroke-linejoin: miter; stroke-miterlimit: 10; fill: none; fill-rule: nonzero; opacity: 1;" transform="translate(1.4065934065934016 1.4065934065934016) scale(2.81 2.81)" >
	<path d="M 51.648 83.842 c -1.104 0 -2.301 -0.147 -3.598 -0.439 l -1.094 -0.246 l -0.061 -1.12 c -0.622 -11.474 -7.597 -26.883 -14.435 -29.325 l 0.003 0.408 c 0.008 1.197 -0.498 2.318 -1.425 3.156 c -0.88 0.796 -2.04 1.239 -3.265 1.247 L 5.031 57.673 c -0.011 0 -0.022 0 -0.033 0 c -2.587 0 -4.699 -1.94 -4.715 -4.34 L 0 10.711 c -0.016 -2.41 2.088 -4.385 4.69 -4.403 l 22.742 -0.151 c 2.437 0.007 4.462 1.693 4.72 3.891 c 3.794 -2.345 9.745 -3.806 15.735 -3.68 l 30.58 -0.204 c 1.824 0.021 3.581 0.698 4.898 1.998 c 1.318 1.3 2.05 3.03 2.062 4.871 l 0.008 1.082 c 0.01 1.507 -0.466 2.906 -1.279 4.048 c 3.284 0.516 5.813 3.354 5.837 6.784 L 90 26.033 c 0.013 1.84 -0.697 3.58 -1.997 4.898 c -0.23 0.233 -0.473 0.447 -0.728 0.643 c 1.55 1.259 2.548 3.175 2.562 5.323 l 0.007 1.084 c 0.016 2.353 -1.151 4.442 -2.945 5.705 c 1.441 1.258 2.357 3.103 2.371 5.161 l 0.007 1.083 c 0.013 1.841 -0.696 3.58 -1.997 4.898 c -1.3 1.318 -3.03 2.05 -4.872 2.063 l -21.069 0.105 c 1.335 13.382 0.133 21.266 -3.754 24.745 C 56.014 83.144 54.054 83.842 51.648 83.842 z M 49.776 80.717 c 2.593 0.417 4.465 0.032 5.83 -1.189 c 3.222 -2.883 4.076 -10.682 2.611 -23.844 l -0.183 -1.639 l 24.356 -0.123 c 2.175 -0.014 3.934 -1.797 3.919 -3.974 l -0.007 -1.083 c -0.014 -2.167 -1.784 -3.921 -3.948 -3.921 c -0.005 0 -0.01 0 -0.015 0 h -0.012 l -0.018 -2.967 c 0.004 0 0.008 0 0.012 0 l 0.636 -0.004 c 2.176 -0.014 3.935 -1.797 3.92 -3.974 l -0.007 -1.084 c -0.014 -2.167 -1.784 -3.921 -3.948 -3.921 c -0.009 0 -0.017 0 -0.026 0 h -0.001 l -0.018 -2.967 c 0.003 0 0.006 0 0.009 0 l 0.228 -0.001 c 1.048 -0.007 2.035 -0.426 2.778 -1.179 c 0.744 -0.753 1.149 -1.746 1.143 -2.794 l -0.007 -1.084 c -0.014 -2.167 -1.783 -3.921 -3.947 -3.921 c -0.01 0 -0.018 0 -0.027 0 l -4.485 0.03 l 0 0 l -0.019 -2.967 c 2.176 -0.015 3.936 -1.797 3.921 -3.974 l -0.008 -1.083 c -0.007 -1.048 -0.425 -2.035 -1.179 -2.779 c -0.747 -0.737 -1.729 -1.143 -2.767 -1.143 c -0.01 0 -0.018 0 -0.027 0 L 47.87 9.335 c -6.725 -0.128 -13.468 1.877 -16.052 4.758 l -2.563 2.857 l -0.042 -6.431 c -0.005 -0.762 -0.824 -1.427 -1.762 -1.393 L 4.71 9.276 c -0.949 0.006 -1.748 0.655 -1.743 1.416 L 3.25 53.313 c 0.005 0.76 0.796 1.409 1.762 1.393 l 22.742 -0.151 c 0.489 -0.003 0.96 -0.178 1.294 -0.48 c 0.169 -0.153 0.452 -0.478 0.449 -0.937 l -0.026 -3.796 l 1.57 0.08 C 40.666 49.916 48.676 68.025 49.776 80.717 z" style="stroke: none; stroke-width: 1; stroke-dasharray: none; stroke-linecap: butt; stroke-linejoin: miter; stroke-miterlimit: 10; fill: rgb(0,0,0); fill-rule: nonzero; opacity: 1;" transform=" matrix(1 0 0 1 0 0) " stroke-linecap="round" />
</g>
</svg>