<svg xmlns="http://www.w3.org/2000/svg" xmlns:xlink="http://www.w3.org/1999/xlink" version="1.1" width="256" height="256" viewBox="0 0 256 256" xml:space="preserve">

<defs>
</defs>
<g style="stroke: none; stroke-width: 0; stroke-dasharray: none; stroke-linecap: butt; stroke-linejoin: miter; stroke-miterlimit: 10; fill: none; fill-rule: nonzero; opacity: 1;" transform="translate(1.4065934065934016 1.4065934065934016) scale(2.81 2.81)" >
	<path d="M 34.275 68.551 c -9.155 0 -17.763 -3.566 -24.236 -10.04 C 3.565 52.039 0 43.431 0 34.276 c 0 -9.155 3.565 -17.763 10.039 -24.236 C 16.513 3.566 25.12 0 34.275 0 S 52.037 3.566 58.511 10.04 l 0 0 l 0 0 c 6.474 6.473 10.04 15.081 10.04 24.236 c 0 9.156 -3.566 17.763 -10.04 24.236 C 52.037 64.986 43.43 68.551 34.275 68.551 z M 34.275 2.967 c -8.363 0 -16.225 3.257 -22.138 9.17 s -9.17 13.776 -9.17 22.138 c 0 8.363 3.257 16.225 9.17 22.138 c 5.913 5.914 13.776 9.171 22.138 9.171 s 16.224 -3.257 22.138 -9.171 c 5.914 -5.913 9.171 -13.775 9.171 -22.138 c 0 -8.363 -3.257 -16.225 -9.171 -22.138 l 0 0 C 50.5 6.224 42.638 2.967 34.275 2.967 z" style="stroke: none; stroke-width: 1; stroke-dasharray: none; stroke-linecap: butt; stroke-linejoin: miter; stroke-miterlimit: 10; fill: rgb(0,0,0); fill-rule: nonzero; opacity: 1;" transform=" matrix(1 0 0 1 0 0) " stroke-linecap="round" />
	<path d="M 88.516 90 c -0.38 0 -0.759 -0.145 -1.049 -0.435 L 56.455 58.553 c -0.579 -0.579 -0.579 -1.518 0 -2.098 c 0.579 -0.579 1.518 -0.579 2.098 0 l 31.013 31.012 c 0.579 0.579 0.579 1.518 0 2.098 C 89.276 89.855 88.896 90 88.516 90 z" style="stroke: none; stroke-width: 1; stroke-dasharray: none; stroke-linecap: butt; stroke-linejoin: miter; stroke-miterlimit: 10; fill: rgb(0,0,0); fill-rule: nonzero; opacity: 1;" transform=" matrix(1 0 0 1 0 0) " stroke-linecap="round" />
</g>
</svg>