<svg xmlns="http://www.w3.org/2000/svg" xmlns:xlink="http://www.w3.org/1999/xlink" version="1.1" width="256" height="256" viewBox="0 0 256 256" xml:space="preserve">

<defs>
</defs>
<g style="stroke: none; stroke-width: 0; stroke-dasharray: none; stroke-linecap: butt; stroke-linejoin: miter; stroke-miterlimit: 10; fill: none; fill-rule: nonzero; opacity: 1;" transform="translate(1.4065934065934016 1.4065934065934016) scale(2.81 2.81)" >
	<path d="M 73.579 86.629 H 16.421 c -0.932 0 -1.688 0.756 -1.688 1.687 s 0.756 1.687 1.688 1.687 h 57.159 c 0.932 0 1.687 -0.756 1.687 -1.687 S 74.511 86.629 73.579 86.629 z" style="stroke: none; stroke-width: 1; stroke-dasharray: none; stroke-linecap: butt; stroke-linejoin: miter; stroke-miterlimit: 10; fill: rgb(0,0,0); fill-rule: nonzero; opacity: 1;" transform=" matrix(1 0 0 1 0 0) " stroke-linecap="round" />
	<path d="M 17.514 27.281 L 43.312 5.335 v 71.839 c 0 0.933 0.756 1.687 1.688 1.687 c 0.932 0 1.687 -0.755 1.687 -1.687 V 5.335 l 25.799 21.946 c 0.71 0.604 1.776 0.518 2.378 -0.192 c 0.604 -0.71 0.518 -1.775 -0.192 -2.379 L 46.114 0.416 c -0.001 -0.001 -0.002 -0.002 -0.003 -0.003 l -0.018 -0.015 c -0.055 -0.047 -0.12 -0.074 -0.179 -0.112 c -0.069 -0.045 -0.13 -0.099 -0.206 -0.134 c -0.004 -0.002 -0.009 -0.002 -0.013 -0.004 c -0.077 -0.035 -0.16 -0.049 -0.242 -0.072 c -0.074 -0.021 -0.145 -0.052 -0.22 -0.063 c -0.04 -0.006 -0.081 0.002 -0.121 -0.001 c -0.118 -0.008 -0.236 -0.015 -0.353 0.002 c -0.033 0.005 -0.064 0.021 -0.097 0.028 c -0.123 0.025 -0.245 0.055 -0.361 0.107 c -0.003 0.002 -0.007 0.002 -0.01 0.003 c -0.065 0.03 -0.117 0.078 -0.177 0.115 c -0.07 0.044 -0.144 0.077 -0.208 0.131 L 15.327 24.71 c -0.71 0.604 -0.796 1.669 -0.192 2.379 C 15.739 27.799 16.804 27.885 17.514 27.281 z" style="stroke: none; stroke-width: 1; stroke-dasharray: none; stroke-linecap: butt; stroke-linejoin: miter; stroke-miterlimit: 10; fill: rgb(0,0,0); fill-rule: nonzero; opacity: 1;" transform=" matrix(1 0 0 1 0 0) " stroke-linecap="round" />
</g>
</svg>